<svg xmlns="http://www.w3.org/2000/svg" width="1600" height="1000" viewBox="0 0 1600 1000"><style>.frame,.box,.line{fill:#fff;stroke:#161616;stroke-width:3}.line{fill:none;stroke-width:2}.brand{font:700 30px Arial,sans-serif}.title{font:700 34px Arial,sans-serif}.label{font:18px Arial,sans-serif}.small{font:14px Arial,sans-serif}.button{font:700 18px Arial,sans-serif}</style><rect class="frame" x="14" y="14" width="1572" height="972" rx="14"/><rect class="frame" x="14" y="14" width="1572" height="64" rx="14"/><circle cx="48" cy="46" r="9" fill="none" stroke="#161616" stroke-width="3"/><circle cx="76" cy="46" r="9" fill="none" stroke="#161616" stroke-width="3"/><circle cx="104" cy="46" r="9" fill="none" stroke="#161616" stroke-width="3"/><rect x="165" y="31" width="630" height="30" rx="8" class="box" /><rect x="46" y="103" width="1508" height="56" rx="8" class="box" /><text x="75" y="140" class="brand" >SMS</text><text x="1475" y="140" class="label" text-anchor="end">Login</text><text x="100" y="280" class="title" >Supermarket System</text><line x1="100" y1="315" x2="460" y2="315" class="line "/><text x="100" y="355" class="label" >Hệ thống quản lý siêu thị</text><rect x="130" y="420" width="380" height="220" rx="8" class="box" /><rect x="170" y="515" width="90" height="90" rx="8" class="box" /><rect x="280" y="475" width="110" height="130" rx="8" class="box" /><rect x="410" y="535" width="65" height="70" rx="8" class="box" /><line x1="100" y1="670" x2="530" y2="670" class="line "/><text x="100" y="720" class="label" >• Quản lý tập trung</text><text x="100" y="760" class="label" >• Theo dõi hàng hóa</text><text x="100" y="800" class="label" >• Báo cáo nhanh</text><rect x="690" y="205" width="550" height="650" rx="8" class="box" /><text x="965" y="300" class="title" text-anchor="middle">◯</text><text x="965" y="350" class="title" text-anchor="middle">Đăng nhập</text><text x="765" y="405" class="label" >Tên đăng nhập</text><rect x="765" y="420" width="400" height="48" rx="8" class="box" /><text x="785" y="451" class="small" >Nhập tên đăng nhập</text><text x="765" y="505" class="label" >Mật khẩu</text><rect x="765" y="520" width="400" height="48" rx="8" class="box" /><text x="785" y="551" class="small" >Nhập mật khẩu</text><rect x="765" y="595" width="20" height="20" rx="8" class="box" /><text x="802" y="612" class="label" >Ghi nhớ</text><text x="1165" y="612" class="label" text-anchor="end">Quên mật khẩu?</text><rect x="765" y="645" width="400" height="52" rx="8" class="box" /><text x="965" y="678" class="button" text-anchor="middle">Đăng nhập</text><text x="765" y="735" class="small" >ĐĂNG NHẬP NHANH</text><rect x="765" y="755" width="190" height="42" rx="8" class="box" /><text x="860" y="782" class="small" text-anchor="middle">CEO</text><rect x="970" y="755" width="190" height="42" rx="8" class="box" /><text x="1065" y="782" class="small" text-anchor="middle">Admin</text><rect x="765" y="810" width="190" height="42" rx="8" class="box" /><text x="860" y="837" class="small" text-anchor="middle">Thu ngân</text><rect x="970" y="810" width="190" height="42" rx="8" class="box" /><text x="1065" y="837" class="small" text-anchor="middle">Quản lý kho</text><rect class="frame" x="1270" y="205" width="230" height="650" rx="10"/><text x="1300" y="260" class="title" >Notes</text><line x1="1300" y1="310" x2="1465" y2="310" class="line "/><line x1="1300" y1="365" x2="1465" y2="365" class="line "/><line x1="1300" y1="420" x2="1465" y2="420" class="line "/><line x1="1300" y1="475" x2="1465" y2="475" class="line "/></svg>