<svg xmlns="http://www.w3.org/2000/svg" width="1600" height="1000" viewBox="0 0 1600 1000">
  <style>
    .frame,.box,.line{fill:#fff;stroke:#161616;stroke-width:3}.line{fill:none;stroke-width:2}.thin{stroke-width:1.5}.brand{font:700 29px Arial,sans-serif}.title{font:700 32px Arial,sans-serif}.subtitle{font:18px Arial,sans-serif}.label{font:17px Arial,sans-serif}.small{font:14px Arial,sans-serif}.muted{fill:#555}.button{font:700 17px Arial,sans-serif}.dash{stroke-dasharray:6 6}
  </style>
  <rect class="frame" x="14" y="14" width="1572" height="972" rx="14"/>
  <rect class="frame" x="14" y="14" width="1572" height="64" rx="14"/>
  <circle cx="48" cy="46" r="9" fill="none" stroke="#161616" stroke-width="3"/><circle cx="76" cy="46" r="9" fill="none" stroke="#161616" stroke-width="3"/><circle cx="104" cy="46" r="9" fill="none" stroke="#161616" stroke-width="3"/>
  <rect x="165" y="31" width="630" height="30" rx="8" class="box" />
  <rect class="frame" x="46" y="103" width="1508" height="56" rx="8"/>
  <text x="76" y="140" class="brand" >SMS</text><text x="216" y="139" class="label muted" >Supermarket Management System</text><text x="1475" y="139" class="label" text-anchor="end">Mockup user  ▾</text>
  <rect x="46" y="159" width="245" height="762" fill="#fff" stroke="#161616" stroke-width="3"/>
  <text x="76" y="222" class="label" >Tổng quan</text><rect x="47" y="258" width="8" height="43" fill="#161616"/><text x="76" y="286" class="label" >Bán hàng</text><text x="76" y="350" class="label" >Kho hàng</text><text x="76" y="414" class="label" >Nhân sự</text><text x="76" y="478" class="label" >Quản trị</text><text x="76" y="542" class="label" >Báo cáo</text><text x="76" y="606" class="label" >Cài đặt</text>
  <line x1="291" y1="159" x2="291" y2="921" class="line "/>
  <text x="330" y="211" class="title" >Bán hàng</text><text x="330" y="245" class="subtitle muted" >Màn hình 04-pos-sale • Điểm bán hàng</text><rect x="330" y="280" width="730" height="555" rx="8" class="box" /><text x="355" y="319" class="label" >Tìm hàng hóa / quét mã vạch</text><rect x="355" y="337" width="680" height="44" rx="8" class="box" /><text x="378" y="366" class="small muted" >⌕  Nhập tên hoặc mã sản phẩm</text><rect x="355" y="415" width="300" height="118" rx="8" class="box" /><rect x="373" y="431" width="82" height="78" rx="8" class="box" /><text x="473" y="460" class="label" >Sản phẩm</text><text x="473" y="493" class="label muted" >0 đ</text><rect x="685" y="415" width="300" height="118" rx="8" class="box" /><rect x="703" y="431" width="82" height="78" rx="8" class="box" /><text x="803" y="460" class="label" >Sản phẩm</text><text x="803" y="493" class="label muted" >0 đ</text><rect x="355" y="565" width="300" height="118" rx="8" class="box" /><rect x="373" y="581" width="82" height="78" rx="8" class="box" /><text x="473" y="610" class="label" >Sản phẩm</text><text x="473" y="643" class="label muted" >0 đ</text><rect x="685" y="565" width="300" height="118" rx="8" class="box" /><rect x="703" y="581" width="82" height="78" rx="8" class="box" /><text x="803" y="610" class="label" >Sản phẩm</text><text x="803" y="643" class="label muted" >0 đ</text>
    <rect x="1090" y="280" width="410" height="555" rx="8" class="box" /><text x="1120" y="319" class="label" >Hóa đơn hiện tại</text><line x1="1120" y1="340" x2="1470" y2="340" class="line thin"/><text x="1295" y="470" class="label muted" text-anchor="middle">Chưa có sản phẩm</text><line x1="1120" y1="710" x2="1470" y2="710" class="line "/><text x="1120" y="750" class="label" >Tổng thanh toán</text><text x="1470" y="750" class="title" text-anchor="end">0 đ</text><rect x="1120" y="775" width="350" height="44" rx="8" class="box" /><text x="1295" y="804" class="button" text-anchor="middle">Thanh toán</text>
  <rect class="frame" x="46" y="921" width="1508" height="42" rx="0"/><text x="76" y="948" class="small muted" >SMS • Low-fidelity wireframe</text>
  </svg>