<svg xmlns="http://www.w3.org/2000/svg" width="1600" height="1000" viewBox="0 0 1600 1000">
  <style>
    .frame,.box,.line{fill:#fff;stroke:#161616;stroke-width:3}.line{fill:none;stroke-width:2}.thin{stroke-width:1.5}.brand{font:700 29px Arial,sans-serif}.title{font:700 32px Arial,sans-serif}.subtitle{font:18px Arial,sans-serif}.label{font:17px Arial,sans-serif}.small{font:14px Arial,sans-serif}.muted{fill:#555}.button{font:700 17px Arial,sans-serif}.dash{stroke-dasharray:6 6}
  </style>
  <rect class="frame" x="14" y="14" width="1572" height="972" rx="14"/>
  <rect class="frame" x="14" y="14" width="1572" height="64" rx="14"/>
  <circle cx="48" cy="46" r="9" fill="none" stroke="#161616" stroke-width="3"/><circle cx="76" cy="46" r="9" fill="none" stroke="#161616" stroke-width="3"/><circle cx="104" cy="46" r="9" fill="none" stroke="#161616" stroke-width="3"/>
  <rect x="165" y="31" width="630" height="30" rx="8" class="box" />
  <rect class="frame" x="46" y="103" width="1508" height="56" rx="8"/>
  <text x="76" y="140" class="brand" >SMS</text><text x="216" y="139" class="label muted" >Supermarket Management System</text><text x="1475" y="139" class="label" text-anchor="end">Mockup user  ▾</text>
  <rect x="46" y="159" width="245" height="762" fill="#fff" stroke="#161616" stroke-width="3"/>
  <text x="76" y="222" class="label" >Tổng quan</text><text x="76" y="286" class="label" >Bán hàng</text><rect x="47" y="322" width="8" height="43" fill="#161616"/><text x="76" y="350" class="label" >Kho hàng</text><text x="76" y="414" class="label" >Nhân sự</text><text x="76" y="478" class="label" >Quản trị</text><text x="76" y="542" class="label" >Báo cáo</text><text x="76" y="606" class="label" >Cài đặt</text>
  <line x1="291" y1="159" x2="291" y2="921" class="line "/>
  <text x="330" y="211" class="title" >Phiếu kiểm kho</text><text x="330" y="245" class="subtitle muted" >Màn hình 21-warehouse-stock-count • Danh sách và thao tác nhanh</text>
    <rect x="330" y="280" width="415" height="44" rx="8" class="box" /><text x="352" y="309" class="label muted" >⌕  Tìm kiếm...</text><rect x="1270" y="280" width="190" height="44" rx="8" class="box" /><text x="1365" y="309" class="button" text-anchor="middle">+  Thêm mới</text>
    <rect x="330" y="350" width="1170" height="390" rx="8" class="box" /><text x="354" y="380" class="small muted" >Tên / Mã</text><text x="720" y="380" class="small muted" >Trạng thái</text><text x="1110" y="380" class="small muted" >Cập nhật</text><text x="1416" y="380" class="small muted" text-anchor="middle">Thao tác</text><line x1="332" y1="393" x2="1500" y2="393" class="line thin"/><text x="354" y="427" class="label" >Dữ liệu 01</text><text x="720" y="427" class="small muted" >Trạng thái</text><text x="1110" y="427" class="small muted" >20/07/2026</text><rect x="1370" y="405" width="92" height="28" rx="8" class="box" /><text x="1416" y="425" class="small" text-anchor="middle">Xem</text><line x1="332" y1="448" x2="1500" y2="448" class="line thin"/><text x="354" y="482" class="label" >Dữ liệu 02</text><text x="720" y="482" class="small muted" >Trạng thái</text><text x="1110" y="482" class="small muted" >20/07/2026</text><rect x="1370" y="460" width="92" height="28" rx="8" class="box" /><text x="1416" y="480" class="small" text-anchor="middle">Xem</text><line x1="332" y1="503" x2="1500" y2="503" class="line thin"/><text x="354" y="537" class="label" >Dữ liệu 03</text><text x="720" y="537" class="small muted" >Trạng thái</text><text x="1110" y="537" class="small muted" >20/07/2026</text><rect x="1370" y="515" width="92" height="28" rx="8" class="box" /><text x="1416" y="535" class="small" text-anchor="middle">Xem</text><line x1="332" y1="558" x2="1500" y2="558" class="line thin"/><text x="354" y="592" class="label" >Dữ liệu 04</text><text x="720" y="592" class="small muted" >Trạng thái</text><text x="1110" y="592" class="small muted" >20/07/2026</text><rect x="1370" y="570" width="92" height="28" rx="8" class="box" /><text x="1416" y="590" class="small" text-anchor="middle">Xem</text><line x1="332" y1="613" x2="1500" y2="613" class="line thin"/><text x="354" y="647" class="label" >Dữ liệu 05</text><text x="720" y="647" class="small muted" >Trạng thái</text><text x="1110" y="647" class="small muted" >20/07/2026</text><rect x="1370" y="625" width="92" height="28" rx="8" class="box" /><text x="1416" y="645" class="small" text-anchor="middle">Xem</text><line x1="332" y1="668" x2="1500" y2="668" class="line thin"/><text x="354" y="702" class="label" >Dữ liệu 06</text><text x="720" y="702" class="small muted" >Trạng thái</text><text x="1110" y="702" class="small muted" >20/07/2026</text><rect x="1370" y="680" width="92" height="28" rx="8" class="box" /><text x="1416" y="700" class="small" text-anchor="middle">Xem</text>
    <rect x="330" y="775" width="1170" height="90" rx="8" class="box" /><text x="354" y="811" class="label muted" >Hiển thị 1–6 / 6 kết quả</text><rect x="1360" y="796" width="44" height="36" rx="8" class="box" /><text x="1382" y="821" class="button" text-anchor="middle">‹</text><rect x="1415" y="796" width="44" height="36" rx="8" class="box" /><text x="1437" y="821" class="button" text-anchor="middle">›</text>
  <rect class="frame" x="46" y="921" width="1508" height="42" rx="0"/><text x="76" y="948" class="small muted" >SMS • Low-fidelity wireframe</text>
  </svg>