<svg xmlns="http://www.w3.org/2000/svg" width="1600" height="1000" viewBox="0 0 1600 1000">
  <style>
    .frame,.box,.line{fill:#fff;stroke:#161616;stroke-width:3}.line{fill:none;stroke-width:2}.thin{stroke-width:1.5}.brand{font:700 29px Arial,sans-serif}.title{font:700 32px Arial,sans-serif}.subtitle{font:18px Arial,sans-serif}.label{font:17px Arial,sans-serif}.small{font:14px Arial,sans-serif}.muted{fill:#555}.button{font:700 17px Arial,sans-serif}.dash{stroke-dasharray:6 6}
  </style>
  <rect class="frame" x="14" y="14" width="1572" height="972" rx="14"/>
  <rect class="frame" x="14" y="14" width="1572" height="64" rx="14"/>
  <circle cx="48" cy="46" r="9" fill="none" stroke="#161616" stroke-width="3"/><circle cx="76" cy="46" r="9" fill="none" stroke="#161616" stroke-width="3"/><circle cx="104" cy="46" r="9" fill="none" stroke="#161616" stroke-width="3"/>
  <rect x="165" y="31" width="630" height="30" rx="8" class="box" />
  <rect class="frame" x="46" y="103" width="1508" height="56" rx="8"/>
  <text x="76" y="140" class="brand" >SMS</text><text x="216" y="139" class="label muted" >Supermarket Management System</text><text x="1475" y="139" class="label" text-anchor="end">Mockup user  ▾</text>
  <rect x="46" y="159" width="245" height="762" fill="#fff" stroke="#161616" stroke-width="3"/>
  <text x="76" y="222" class="label" >Tổng quan</text><text x="76" y="286" class="label" >Bán hàng</text><text x="76" y="350" class="label" >Kho hàng</text><rect x="47" y="386" width="8" height="43" fill="#161616"/><text x="76" y="414" class="label" >Nhân sự</text><text x="76" y="478" class="label" >Quản trị</text><text x="76" y="542" class="label" >Báo cáo</text><text x="76" y="606" class="label" >Cài đặt</text>
  <line x1="291" y1="159" x2="291" y2="921" class="line "/>
  <text x="330" y="211" class="title" >Hiệu suất nhân viên</text><text x="330" y="245" class="subtitle muted" >Màn hình 36-hr-performance • Nhập và xác nhận thông tin</text><rect x="330" y="275" width="1170" height="420" rx="8" class="box" /><text x="330" y="310" class="label" >Tên thông tin *</text><rect x="330" y="326" width="535" height="46" rx="8" class="box" /><text x="348" y="356" class="small muted" >Nhập thông tin</text><text x="920" y="310" class="label" >Mã / tham chiếu *</text><rect x="920" y="326" width="535" height="46" rx="8" class="box" /><text x="938" y="356" class="small muted" >Nhập thông tin</text><text x="330" y="415" class="label" >Ngày áp dụng</text><rect x="330" y="431" width="535" height="46" rx="8" class="box" /><text x="348" y="461" class="small muted" >Nhập thông tin</text><text x="920" y="415" class="label" >Trạng thái</text><rect x="920" y="431" width="535" height="46" rx="8" class="box" /><text x="938" y="461" class="small muted" >Nhập thông tin</text>
    <text x="330" y="555" class="label" >Danh sách chi tiết</text><rect x="330" y="575" width="1170" height="84" rx="8" class="box" /><line x1="350" y1="610" x2="1465" y2="610" class="line thin dash"/><text x="925" y="640" class="label muted" text-anchor="middle">+ Thêm dòng dữ liệu</text>
    <rect x="1195" y="735" width="130" height="45" rx="8" class="box" /><text x="1260" y="764" class="button" text-anchor="middle">Hủy</text><rect x="1340" y="735" width="160" height="45" rx="8" class="box" /><text x="1420" y="764" class="button" text-anchor="middle">Lưu lại</text>
  <rect class="frame" x="46" y="921" width="1508" height="42" rx="0"/><text x="76" y="948" class="small muted" >SMS • Low-fidelity wireframe</text>
  </svg>